<?xml version="1.0" encoding="UTF-8" standalone="no"?>
<!-- Created with Inkscape (http://www.inkscape.org/) -->

<svg
   width="54.458599mm"
   height="9.2358513mm"
   viewBox="0 0 54.458599 9.2358513"
   version="1.1"
   id="svg5"
   xml:space="preserve"
   inkscape:version="1.2.2 (732a01da63, 2022-12-09, custom)"
   sodipodi:docname="230224_Deveritec_Logo_Rund_Bunt.svg"
   xmlns:inkscape="http://www.inkscape.org/namespaces/inkscape"
   xmlns:sodipodi="http://sodipodi.sourceforge.net/DTD/sodipodi-0.dtd"
   xmlns="http://www.w3.org/2000/svg"
   xmlns:svg="http://www.w3.org/2000/svg"><sodipodi:namedview
     id="namedview7"
     pagecolor="#ffffff"
     bordercolor="#666666"
     borderopacity="1.0"
     inkscape:showpageshadow="2"
     inkscape:pageopacity="0.0"
     inkscape:pagecheckerboard="0"
     inkscape:deskcolor="#d1d1d1"
     inkscape:document-units="mm"
     showgrid="false"
     inkscape:zoom="1.6819304"
     inkscape:cx="325.22154"
     inkscape:cy="228.01181"
     inkscape:window-width="1870"
     inkscape:window-height="1136"
     inkscape:window-x="0"
     inkscape:window-y="0"
     inkscape:window-maximized="1"
     inkscape:current-layer="svg5"><inkscape:page
       x="0"
       y="0"
       width="54.458599"
       height="9.2358513"
       id="page208" /><inkscape:page
       x="166.10725"
       y="-38.062088"
       width="38.637268"
       height="7.7619934"
       id="page210" /></sodipodi:namedview><defs
     id="defs2"><clipPath
       clipPathUnits="userSpaceOnUse"
       id="clipPath164"><path
         d="M 0,22.002 H 109.523 V 0 H 0 Z"
         id="path162" /></clipPath></defs><g
     inkscape:label="Ebene 1"
     inkscape:groupmode="layer"
     id="layer1"
     transform="translate(-53.892743,-38.062089)" /><g
     id="g158"
     transform="matrix(0.4983301,0,0,-0.49833013,-0.03518211,9.6286351)"><g
       id="g160"
       clip-path="url(#clipPath164)"><g
         id="g166"
         transform="translate(46.3881,11.1392)"><path
           d="m 0,0 c 0.655,0.31 1.354,0.465 2.052,0.465 0.537,0 1.074,-0.092 1.593,-0.278 1.329,-0.476 2.376,-1.526 2.863,-2.829 L -2.441,-2.647 C -2.008,-1.479 -1.143,-0.541 0,0 M 7.547,-5.536 C 7.223,-5.418 6.863,-5.58 6.743,-5.904 5.815,-8.396 3.024,-9.696 0.522,-8.796 -1.522,-8.063 -2.826,-6.028 -2.7,-3.898 l 10.033,0.007 c 0.187,0 0.364,0.084 0.482,0.229 0.119,0.143 0.167,0.334 0.131,0.516 -0.406,2.07 -1.893,3.798 -3.88,4.51 -3.127,1.122 -6.581,-0.512 -7.702,-3.639 -0.103,-0.288 -0.184,-0.584 -0.241,-0.88 -0.007,-0.035 -0.01,-0.071 -0.011,-0.105 -0.442,-2.871 1.241,-5.728 3.989,-6.713 0.675,-0.243 1.367,-0.357 2.05,-0.357 2.491,0 4.849,1.532 5.764,3.99 0.12,0.323 -0.045,0.683 -0.368,0.804"
           style="fill:#254e85;fill-opacity:1;fill-rule:nonzero;stroke:none"
           id="path168" /></g><g
         id="g170"
         transform="translate(19.1615,11.1392)"><path
           d="m 0,0 c 0.655,0.31 1.354,0.465 2.052,0.465 0.537,0 1.074,-0.092 1.593,-0.278 1.328,-0.476 2.375,-1.526 2.863,-2.829 L -2.441,-2.647 C -2.008,-1.479 -1.143,-0.541 0,0 M 7.546,-5.536 C 7.222,-5.418 6.862,-5.58 6.742,-5.904 5.814,-8.396 3.024,-9.695 0.522,-8.796 c -2.045,0.733 -3.349,2.769 -3.223,4.898 l 10.034,0.007 c 0.187,0 0.364,0.084 0.482,0.229 0.119,0.143 0.167,0.334 0.131,0.516 -0.407,2.07 -1.894,3.798 -3.88,4.51 -1.505,0.54 -3.139,0.457 -4.6,-0.234 -1.461,-0.691 -2.563,-1.9 -3.102,-3.406 -0.103,-0.287 -0.184,-0.582 -0.241,-0.878 -0.007,-0.035 -0.011,-0.071 -0.012,-0.106 -0.442,-2.871 1.242,-5.728 3.99,-6.713 0.675,-0.243 1.367,-0.357 2.049,-0.357 2.492,0 4.849,1.532 5.764,3.99 0.12,0.323 -0.044,0.683 -0.368,0.804"
           style="fill:#254e85;fill-opacity:1;fill-rule:nonzero;stroke:none"
           id="path172" /></g><g
         id="g174"
         transform="translate(6.0946,2.0582)"><path
           d="m 0,0 c -2.632,0 -4.774,2.142 -4.774,4.773 0,2.633 2.142,4.775 4.774,4.775 2.632,0 4.774,-2.142 4.774,-4.775 C 4.774,2.142 2.632,0 0,0 m 5.423,17.15 c -0.345,0 -0.625,-0.279 -0.625,-0.625 V 8.401 C 3.697,9.854 1.959,10.798 0,10.798 c -3.322,0 -6.024,-2.703 -6.024,-6.025 0,-3.321 2.702,-6.023 6.024,-6.023 1.959,0 3.697,0.944 4.798,2.396 v -1.791 c 0,-0.344 0.28,-0.625 0.625,-0.625 0.345,0 0.625,0.281 0.625,0.625 v 17.17 c 0,0.346 -0.28,0.625 -0.625,0.625"
           style="fill:#254e85;fill-opacity:1;fill-rule:nonzero;stroke:none"
           id="path176" /></g><g
         id="g178"
         transform="translate(34.9301,0.7994)"><path
           d="m 0,0 c -0.237,0 -0.454,0.134 -0.559,0.346 l -5.298,10.621 c -0.154,0.309 -0.029,0.684 0.28,0.838 0.31,0.155 0.684,0.028 0.838,-0.28 l 4.732,-9.486 4.605,9.465 c 0.151,0.311 0.526,0.44 0.836,0.289 0.31,-0.151 0.439,-0.525 0.288,-0.835 L 0.562,0.352 C 0.458,0.137 0.237,0.021 0,0"
           style="fill:#254e85;fill-opacity:1;fill-rule:nonzero;stroke:none"
           id="path180" /></g><g
         id="g182"
         transform="translate(64.5492,12.672)"><path
           d="m 0,0 c -1.935,0 -3.654,-0.928 -4.757,-2.361 v 1.736 C -4.757,-0.28 -5.037,0 -5.382,0 -5.728,0 -6.007,-0.28 -6.007,-0.625 v -5.116 c -0.006,-0.11 -0.017,-0.219 -0.017,-0.331 0,-0.029 0.013,-0.054 0.017,-0.082 v -5.101 c 0,-0.345 0.279,-0.625 0.625,-0.625 0.345,0 0.625,0.28 0.625,0.625 v 5.349 c 0.088,2.581 2.181,4.656 4.757,4.656 0.345,0 0.625,0.28 0.625,0.625 C 0.625,-0.28 0.345,0 0,0"
           style="fill:#254e85;fill-opacity:1;fill-rule:nonzero;stroke:none"
           id="path184" /></g><g
         id="g186"
         transform="translate(69.6884,0.8306)"><path
           d="m 0,0 c -0.345,0 -0.625,0.28 -0.625,0.625 v 10.592 c 0,0.345 0.28,0.625 0.625,0.625 0.345,0 0.625,-0.28 0.625,-0.625 V 0.625 C 0.625,0.28 0.345,0 0,0"
           style="fill:#254e85;fill-opacity:1;fill-rule:nonzero;stroke:none"
           id="path188" /></g><g
         id="g190"
         transform="translate(70.3398,15.1009)"><path
           d="m 0,0 c 0,-0.36 -0.291,-0.652 -0.652,-0.652 -0.36,0 -0.652,0.292 -0.652,0.652 0,0.36 0.292,0.652 0.652,0.652 C -0.291,0.652 0,0.36 0,0"
           style="fill:#254e85;fill-opacity:1;fill-rule:nonzero;stroke:none"
           id="path192" /></g><g
         id="g194"
         transform="translate(87.1492,11.1411)"><path
           d="m 0,0 c 0.655,0.31 1.354,0.465 2.052,0.465 0.537,0 1.074,-0.092 1.593,-0.278 1.329,-0.476 2.376,-1.526 2.863,-2.829 L -2.441,-2.647 C -2.008,-1.479 -1.143,-0.541 0,0 M 7.547,-5.536 C 7.223,-5.418 6.863,-5.58 6.743,-5.904 5.815,-8.396 3.024,-9.696 0.522,-8.796 -1.522,-8.063 -2.826,-6.028 -2.7,-3.898 l 10.033,0.007 c 0.187,0 0.364,0.084 0.482,0.229 0.119,0.143 0.167,0.334 0.131,0.516 -0.406,2.07 -1.893,3.798 -3.88,4.51 -3.127,1.122 -6.581,-0.512 -7.702,-3.639 -0.103,-0.288 -0.184,-0.584 -0.241,-0.88 -0.007,-0.035 -0.01,-0.071 -0.011,-0.105 -0.442,-2.871 1.241,-5.728 3.989,-6.713 0.675,-0.243 1.367,-0.357 2.05,-0.357 2.491,0 4.849,1.532 5.764,3.99 0.12,0.323 -0.045,0.683 -0.368,0.804"
           style="fill:#41a1d7;fill-opacity:1;fill-rule:nonzero;stroke:none"
           id="path196" /></g><g
         id="g198"
         transform="translate(104.0007,12.8558)"><path
           d="m 0,0 c -2.538,0 -4.818,-1.603 -5.673,-3.99 -0.541,-1.511 -0.461,-3.145 0.227,-4.6 0.687,-1.455 1.898,-2.555 3.409,-3.096 0.638,-0.229 1.31,-0.345 1.995,-0.345 2.215,0 4.248,1.19 5.306,3.105 0.164,0.298 0.056,0.673 -0.241,0.837 -0.092,0.05 -0.195,0.077 -0.299,0.077 -0.224,0 -0.43,-0.122 -0.538,-0.318 -0.842,-1.524 -2.459,-2.471 -4.221,-2.471 -0.544,0 -1.078,0.093 -1.587,0.275 -1.201,0.43 -2.164,1.305 -2.711,2.462 -0.547,1.158 -0.611,2.457 -0.18,3.659 0.68,1.898 2.493,3.173 4.511,3.173 0.548,0 1.09,-0.094 1.61,-0.28 1.107,-0.397 2.026,-1.184 2.587,-2.216 0.109,-0.198 0.316,-0.321 0.542,-0.321 0.101,0 0.203,0.025 0.294,0.074 0.298,0.163 0.408,0.538 0.247,0.836 C 4.57,-1.841 3.415,-0.852 2.023,-0.353 1.37,-0.119 0.689,0 0,0"
           style="fill:#41a1d7;fill-opacity:1;fill-rule:nonzero;stroke:none"
           id="path200" /></g><g
         id="g202"
         transform="translate(77.0996,19.3218)"><path
           d="m 0,0 c -0.339,0 -0.614,-0.275 -0.614,-0.614 v -2.45 h -2.073 c -0.339,0 -0.614,-0.276 -0.614,-0.614 0,-0.339 0.275,-0.614 0.614,-0.614 h 2.073 l -0.009,-10.527 c 0,-2.242 0.951,-3.088 1.748,-3.402 0.296,-0.117 0.619,-0.176 0.96,-0.176 0.601,0 1.205,0.198 1.469,0.482 0.113,0.12 0.174,0.284 0.168,0.45 -0.006,0.163 -0.074,0.314 -0.192,0.423 -0.116,0.108 -0.266,0.169 -0.422,0.169 -0.39,-0.008 -0.315,-0.296 -1.023,-0.297 -0.221,0 -0.421,0.043 -0.595,0.128 -0.579,0.282 -0.885,1.051 -0.885,2.223 l 0.009,10.527 h 2.065 c 0.339,0 0.614,0.275 0.614,0.614 0,0.338 -0.275,0.614 -0.614,0.614 H 0.614 v 2.45 C 0.614,-0.275 0.339,0 0,0"
           style="fill:#41a1d7;fill-opacity:1;fill-rule:nonzero;stroke:none"
           id="path204" /></g></g></g></svg>
