<?xml version="1.0" encoding="UTF-8"?>
<svg xmlns="http://www.w3.org/2000/svg" version="1.1" viewBox="0 0 204.02812 136.23155">
  <defs>
    <style>
      .cls-1 {
        fill: #f8d200;
      }

      .cls-1, .cls-2, .cls-3, .cls-4 {
        stroke-width: 0px;
      }

      .cls-2 {
        fill: #e30613;
      }

      .cls-3 {
        fill: #1d1d1b;
      }

      .cls-4 {
        fill: #fff;
      }
    </style>
  </defs>
  <g id="Ebene_1" data-name="Ebene 1">
    <g>
      <rect class="cls-4" x="-.03116" y=".13577" width="204.09366" height="136.06299"/>
      <g>
        <path class="cls-3" d="M37.42135,61.74962c.02698-.22299.04297-.453.04297-.68698,0-.129,0-.28201-.01599-.45001,1.99701-.03098,3.74301-1.46399,3.74301-3.117,0-.84-.54703-1.47198-.85602-1.85101.06702-.01599.13699-.03198.20703-.047.293.25403,1.12097,1.15204,1.12097,2.29303,0,1.97998-1.98001,3.81998-4.24197,3.85898M35.41332,54.85164c-.035-.21902-.12097-.418-.24997-.59.008-.203.09-.39902.41797-.23804-.17499.17902-.04297.50003-.04297.50003,0,0,.36398-.16803.285-.40701.53598.129.15298.84399-.41003.73502M34.95233,55.87062c-.07397-.297-.22198-.60101-.41797-.83197-.17505-.20703-.46402-.45303-.85904-.45303-.17999,0-.47696.082-.668.164-.06998-.129-.211-.44101-.211-.582,0-.14401.24603-.293.715-.293,1.03104,0,1.64801.465,1.64801,1.246,0,.27802-.10898.52802-.207.75M37.60134,69.16762c.121,0,.17902.02002.25.04703.297.80899,1.44098,2.332,1.48798,2.39801l.01202.01196.01498-.004c.28201-.043.99701-.15201,1.59799-.15201h.01602c.06198,0,.13599,0,.18301.047.03897.03903.05896.10501.05896.20303,0,.14798-.06299.40601-.14096.51498-.20703-.22998-.55103-.332-1.09302-.332-.16501,0-.35999.047-.465.07501l-.043.01102-.047.01196.31201.31699c.48898.48404.90695.90204.90695,1.18301,0,.168-.16397.38702-.31296.48401-.035-.51102-.55103-1.19501-1.05502-1.578l-.043-.035-.00702.18402c-.00397.12097-.01599.30499-.01599.5,0,.97198-.10196,1.12097-.43799,1.12097-.04999,0-.12799-.01599-.17899-.035.19098-.23499.26498-.543.26498-1.08597l-.00299-.254-.00403-.19904c0-.22699.02301-.39099.04303-.52399l.00699-.07397-.05002-.00803c-.16098-.01898-.45297-.06201-.67599-.06201-.48099,0-.80899.047-1.043.26505-.15601-.12503-.31699-.33905-.31699-.47604,0-.20297.12503-.22299.293-.22299.082,0,.16098.01599.27002.02701.207.03198.51999.07898,1.16.07898h.039l-.01202-.039c-.16397-.465-.60901-1.14099-1.32397-2.01196.06299-.23502.12497-.38702.35199-.38702M31.42935,71.56661l-.01599.039h.03897c.64099,0,.95401-.047,1.16101-.07898.10901-.01102.18701-.02701.26898-.02701.164,0,.29303.02002.29303.22299,0,.13699-.16003.35101-.31604.47604-.23499-.21805-.56299-.26505-1.04297-.26505-.22299,0-.52002.04303-.67603.06201l-.02399.004-.02701.00403.008.07397c.01901.133.043.297.043.52399l-.00397.19904-.00403.254c0,.54297.07401.85098.26602,1.08597-.04703.01901-.129.035-.17999.035-.34003,0-.43802-.14899-.43802-1.12097,0-.19501-.00699-.37903-.01501-.5l-.01196-.18402-.03903.035c-.504.383-1.01898,1.06699-1.05099,1.578-.15198-.09698-.31598-.31601-.31598-.48401,0-.28098.42197-.69897.90601-1.18301l.27698-.28198.04001-.035-.09399-.02298c-.10599-.02802-.297-.07501-.465-.07501-.54303,0-.883.10202-1.09399.332-.07803-.10898-.14001-.367-.14001-.51498,0-.09802.01901-.164.05801-.20303.04697-.047.12097-.047.18799-.047h.01099c.60202,0,1.32101.10901,1.59799.15201l.02002.004.00699-.01196c.05103-.06601,1.19601-1.58902,1.49301-2.39801.06601-.02701.125-.04703.246-.04703.22598,0,.28897.15201.35101.38702-.715.87097-1.16003,1.54697-1.32001,2.01196M28.33532,57.89064c0-1.14099.82803-2.039,1.12103-2.29303.07098.01501.14096.03101.211.047-.31201.37903-.85904,1.01102-.85904,1.85101,0,1.66803,1.78104,3.117,3.80103,3.117-.01202.14499-.02002.293-.02002.45001,0,.246.01202.47198.035.68698-2.28098-.01199-4.289-1.86298-4.289-3.85898M43.64035,61.40163c1.02298,1.62198,1.82397,1.59399,3.035,1.59399-1.00003-.76501-1.66-1.75-1.97702-2.254l-1.871-2.992c-.18298-.922-.66-1.785-1.375-2.42999.23901-.08899.44202-.18701.55902-.27701-1.21902,0-2.42999-.621-3.09799-.621-.42502,0-.703.25803-.703.59399.02798.37903.418.76102,1.133.76102.164,0,.37097-.01901.59799-.05801.39001.539.70297,1.02701.70297,1.72601,0,1.31299-1.56699,2.332-3.14896,2.332-.08902,0-.17502-.00299-.26102-.01099-.14502-.32401-.621-.86703-.621-1.48901,0-1.043.67899-1.89001.67899-2.92099,0-.64102-.31198-1.03903-.43298-1.20401.19501-.17902.40601-.40198.457-.55402-.11401.05099-.246.05402-.44199.05402-.758,0-1.37903-.19498-1.98001-.19498-.34399,0-.43399.10599-.43399.20697,0,.035.00397.07401.01599.09402-.129-.05103-.25-.082-.39502-.10904-.17499-.03598-.367-.05099-.57001-.05099-.73401,0-.99197.30402-.99197.57001,0,.22299.17599.62503.375.93799.285-.14499.62497-.24298.78098-.24298.39102,0,.73401.371.91803.80899-.26199.03101-.31302.04303-.57401.04303-.715,0-1.19901-.25403-1.297-.25403-.01199,0-.03101.004-.03101.01999,0,.10101.203.36304.60098.50702.52402.19598,1.31302.27402,1.44199.297,0,.02402-.13297.27002-.28198.31702-.03098.01099-.05399.01099-.09302.00397-.547-.10999-.69998-.15298-1.39499-.41797-.02298-.008-.03497.00397-.03497.02698,0,.27301.711.883,1.35098,1.11301-.53497.68402-1.19901,1.37903-1.51102,2.43802-.09.008-.17596.01099-.26596.01099-1.58203,0-3.14801-1.01901-3.14801-2.332,0-.69901.31201-1.18701.703-1.72601.22598.039.43301.05801.59799.05801.71399,0,1.10501-.38199,1.13202-.76102,0-.33597-.27304-.59399-.703-.59399-.668,0-1.875.621-3.09702.621.121.09.32001.18802.55798.27701-.715.64499-1.19098,1.508-1.375,2.42999l-1.86697,2.992c-.31601.504-.98102,1.48898-1.98102,2.254,1.207,0,2.01199.02798,3.03601-1.59399l.957-1.53101c.07397.19901.16.39102.26099.582l-1.90601,3.05099c-.31598.50803-.97598,1.48001-1.97998,2.25403,1.21097,0,2.01099.02698,3.035-1.59402l1.63998-2.625c.125.129.254.25803.39099.37903l-2.31598,3.70697c-.32101.50803-.97299,1.48099-1.98099,2.25,1.21097,0,2.01199.03101,3.03497-1.59l2.258-3.61301c.14902.09402.30099.18402.46103.26999l-2.75803,4.41403c-.31598.504-.97202,1.47198-1.97998,2.25,1.21097,0,2.01199.02698,3.03897-1.59l2.836-4.54303c.16803.06201.34003.12503.51202.17902l-3.207,5.133c-.31302.5-.98499,1.48901-1.97702,2.25,1.207,0,2.01202.02802,3.03104-1.59l3.41797-5.46802c.035.00403.07004.00702.10599.01501.09302.297.15601.57501.15601.84799,0,1.71902-1.125,3.23801-2.48099,4.41.086.035.23901.05099.375.05099.28201,0,.461-.01599.59-.03897-.31598.71497-.98801,1.63699-1.328,2.10898-.44498-.07797-1.08997-.14001-1.51199-.14001-.44098,0-.49197.25702-.49197.48804,0,.40198.18799.72299.40598.89798.082-.203.24701-.47598,1.06302-.47598.01599,0,.047,0,.082.00397-.23801.26501-.98404.86703-.98404,1.35501,0,.32001.35101.80499.82004.80499-.02701-.10599-.02701-.19897-.02701-.27399,0-.38998.35101-.85101.64398-1.17499-.008.09698-.004.086-.004.19901,0,.92899.08603,1.35898.67603,1.35898.28897,0,.48801-.15997.55899-.207-.383-.35498-.40302-.633-.40302-1.15198,0-.13702,0-.27002.00403-.45303,0-.12097-.00403-.27798-.01901-.39496.211-.02701.297-.02701.457-.02701,0,0,.84-.06702,1.04297.37097.22604-.211.55804-.504.55804-.828,0-.215-.10101-.46097-.53503-.46097-.16397,0-.67999.10098-1.10898.10098.11697-.25699.633-1.01102,1.07797-1.55801.06601.211.17203.44101.40601.629.035-.35199.23801-1.46497.78903-2.11697.06699.44101.15198.89001.15198,1.84299,0,2.31299-.55798,4.02399-1.73801,4.34799.15302.26901.48102.508.81702.508.42899,0,.668-.48898.90601-.94897.125.33899.46896,1.17499.81601,1.17499.34799,0,.69199-.836.81699-1.17499.23798.45999.47598.94897.90598.94897.34003,0,.66403-.23898.81601-.508-1.17899-.32401-1.73798-2.035-1.73798-4.34799,0-.95297.086-1.40198.15198-1.84299.55099.65201.75803,1.76498.789,2.11697.23499-.18799.34-.418.40701-.629.44501.547.96097,1.30103,1.078,1.55801-.42999,0-.94601-.10098-1.11002-.10098-.43301,0-.53497.24597-.53497.46097,0,.32401.33197.617.55896.828.203-.43799,1.043-.37097,1.043-.37097.16403,0,.25003,0,.46103.02701-.02002.11697-.02399.27399-.02002.39496v.45303c0,.51898-.01898.797-.40201,1.15198.07004.04703.26901.207.55801.207.59003,0,.67599-.42999.67599-1.35898,0-.11301.00403-.10202-.004-.19901.29303.32397.64499.785.64499,1.17499,0,.07501.00403.168-.02698.27399.46799,0,.81998-.48499.81998-.80499,0-.48798-.74597-1.09-.98398-1.35501.039-.00397.06601-.00397.082-.00397.81601,0,.98001.27298,1.06201.47598.21899-.17499.40601-.496.40601-.89798,0-.23102-.05002-.48804-.49203-.48804-.42197,0-1.06598.06204-1.51199.14001-.33899-.47198-1.01099-1.39401-1.328-2.10898.12903.02298.30902.03897.59.03897.14102,0,.28903-.01599.375-.05099-1.35098-1.172-2.48001-2.69098-2.48001-4.41,0-.27298.06204-.55099.15601-.84799.03503-.008.07004-.01099.10501-.01501l3.418,5.46802c1.02399,1.61801,1.82501,1.59,3.03503,1.59-.99603-.76099-1.66702-1.75-1.98001-2.25l-3.207-5.133c.17596-.05399.34399-.117.51199-.17902l2.84,4.54303c1.02298,1.61697,1.82401,1.59,3.035,1.59-1.00803-.77802-1.66-1.746-1.98102-2.25l-2.754-4.41403c.15701-.08597.30899-.17596.457-.26999l2.258,3.61301c1.02402,1.621,1.82401,1.59,3.035,1.59-1.00797-.76901-1.65997-1.74197-1.97998-2.25l-2.31702-3.70697c.13699-.121.26599-.25003.38702-.37903l1.64499,2.625c1.02298,1.621,1.82401,1.59402,3.035,1.59402-1.004-.77402-1.66-1.746-1.98102-2.25403l-1.90601-3.05099c.10202-.19098.19202-.383.26199-.582l.95703,1.53101ZM43.64035,61.40163"/>
        <rect class="cls-3" x="52.74932" y="54.45662" width="3.50002" height="20.00003"/>
        <rect class="cls-2" x="52.74932" y="74.35564" width="3.50002" height="20.10199"/>
        <rect class="cls-1" x="52.74932" y="94.45662" width="3.50002" height="20"/>
        <path class="cls-3" d="M65.24134,62.44463v-3.56201h2.72299v-.82797h-2.72299v-3.06302h2.95399l.06999-.828h-4.06699v8.28101h1.043ZM71.13233,57.33162c.61299,0,.938.46902.938,1.26202,0,.17999-.01199.33597-.024.41797h-2.09c.047-1.07797.49199-1.67999,1.17599-1.67999h0ZM73.07734,61.90563l-.35901-.68301c-.133.129-.52701.504-1.215.504-.96899,0-1.5-.63699-1.558-1.98099h2.94099c.035-.27701.07001-.625.07001-1.117,0-1.379-.672-2.08997-1.761-2.08997-1.20399,0-2.2.91397-2.2,2.95297,0,2.172.914,3.09799,2.36798,3.09799,1.08902,0,1.55801-.51596,1.71402-.68399h0ZM76.26934,61.72661c-.672,0-1.274-.53198-1.274-2.11398,0-1.63199.71098-2.207,1.60999-2.207.34702,0,.578.09402.74602.20398v3.55002c-.13301.19199-.46901.56699-1.082.56699h0ZM77.40934,61.83162h.02399v.61301h.88701v-8.59302l-.96899.10901v2.76199c-.18401-.07401-.44501-.14499-.817-.14499-1.22601,0-2.54602.742-2.54602,3.07098,0,2.10101.92502,2.94101,2.01501,2.94101.914,0,1.297-.578,1.40601-.758h0ZM81.68333,57.33162c.60899,0,.93301.46902.93301,1.26202,0,.17999-.01102.33597-.02301.41797h-2.09c.05101-1.07797.492-1.67999,1.17999-1.67999h0ZM83.62434,61.90563l-.35901-.68301c-.133.129-.52699.504-1.21098.504-.97301,0-1.5-.63699-1.563-1.98099h2.94199c.035-.27701.07001-.625.07001-1.117,0-1.379-.67201-2.08997-1.76199-2.08997-1.19901,0-2.19501.91397-2.19501,2.95297,0,2.172.91,3.09799,2.36301,3.09799,1.09,0,1.55899-.51596,1.715-.68399h0ZM87.45234,56.67162c-.093-.03497-.25002-.09399-.52701-.09399-.73,0-1.043.42999-1.21098.88699h-.02301v-.78098h-.89099v5.76099h.97299v-4.22202c.144-.38699.468-.78098,1.082-.78098.261,0,.429.06998.47598.09299l.12102-.86301ZM90.59735,59.20262h-.30099c-1.30801,0-2.39801.44598-2.39801,1.77802,0,.93701.66,1.60898,1.53499,1.60898.73001,0,1.078-.49197,1.21101-.78101h.02299c.01599.28903.028.46802.03899.63602h.92201c-.02301-.15601-.06999-.707-.06999-1.19901v-2.629c0-1.453-.62502-2.07797-1.80099-2.07797-.92603,0-1.47701.44498-1.72702.69897l.40701.64899c.21498-.19501.601-.51999,1.17599-.51999.625,0,.98401.31302.98401,1.285v.55099ZM90.59735,59.92562v1.26901c-.121.17999-.39502.56702-.96101.56702-.47998,0-.76599-.30103-.76599-.89102,0-.633.493-.89801,1.414-.93298l.313-.01202ZM93.98034,53.85161l-.97301.10901v7.22302c0,1.01898.44501,1.371,1.09401,1.371.433,0,.683-.11002.78099-.15601l-.08598-.72302c-.05801.02304-.18001.07401-.35901.07401-.336,0-.457-.168-.457-.64798v-7.25003ZM104.31234,54.16362l-1.953,5.72699c-.18401.52704-.33601,1.05402-.35201,1.414h-.02299c-.024-.35999-.18001-.89899-.36-1.42999l-1.957-5.711h-1.164v8.28101h1.008v-3.93701c0-.996-.01199-1.95297-.047-2.32797h.035c.07401.35901.364,1.28497.672,2.22198l1.371,4.043h.828l1.368-4.043c.312-.93701.58501-1.86298.67101-2.22198h.036c-.036.34698-.047,1.33197-.047,2.32797v3.93701h1.008v-8.28101h-1.09399ZM107.58933,55.29262c.383,0,.649-.289.649-.69498,0-.39899-.26601-.68399-.649-.68399-.394,0-.66.285-.66.68399,0,.40598.26601.69498.66.69498h0ZM108.07032,56.68364h-.97298v5.76099h.97298v-5.76099ZM111.70632,57.36663c.67201,0,.99602.39899.99602,1.371v3.707h.96899v-3.78101c0-1.55798-.64401-2.12497-1.68001-2.12497-.89799,0-1.41399.58997-1.52299.79297h-.02299v-.64798h-.88699v5.76099h.97198v-4.44101c.192-.23801.58601-.63699,1.17599-.63699h0ZM115.61634,55.29262c.383,0,.64899-.289.64899-.69498,0-.39899-.26599-.68399-.64899-.68399-.39401,0-.66.285-.66.68399,0,.40598.26599.69498.66.69498h0ZM116.09735,56.68364h-.97301v5.76099h.97301v-5.76099ZM120.48834,57.15163c-.19199-.19101-.575-.61298-1.46101-.61298-.93799,0-1.66798.63696-1.66798,1.48798,0,.793.42899,1.26199,1.14799,1.71899l.36301.22699c.55099.34702.83998.539.83998,1.09399,0,.37103-.31198.66-.88998.66-.62199,0-.98502-.375-1.16399-.56699l-.46501.76999c.226.23801.69499.66,1.61699.66,1.17601,0,1.83601-.707,1.83601-1.621,0-.85199-.481-1.32001-1.25801-1.78897l-.35901-.21503c-.51999-.31299-.75798-.55096-.75798-.98398,0-.336.27699-.61401.793-.61401.539,0,.875.336,1.00798.48099l.41801-.69598ZM124.40234,62.33562l-.133-.77698c-.09799.05798-.313.16797-.60201.16797-.492,0-.683-.24298-.683-1.05899v-3.19098h1.26099l.12102-.793h-1.382v-1.60602h-.864l-.10901,1.60602-.69499.14398v.64902h.69499v3.32401c0,1.27301.504,1.78897,1.48801,1.78897.51601,0,.817-.19098.903-.254h0ZM127.99935,56.67162c-.09302-.03497-.25003-.09399-.52701-.09399-.731,0-1.043.42999-1.21101.88699h-.02301v-.78098h-.89099v5.76099h.97299v-4.22202c.14401-.38699.468-.78098,1.08202-.78098.261,0,.42899.06998.48.09299l.11702-.86301ZM131.72233,56.68364l-.81598,3.20697c-.16801.64401-.31302,1.22202-.33601,1.66803h-.02399c-.02303-.44601-.19102-1.035-.375-1.68402l-.89803-3.19098h-1.043l1.85901,5.75-.086.29999c-.25.88699-.562,1.32101-1.246,1.32101-.203,0-.336-.05103-.41-.08603v.84c.062.03503.23.10904.46902.10904,1.14,0,1.64398-.73401,2.06598-2.13702l1.797-6.09698h-.957ZM131.72233,56.68364"/>
        <path class="cls-3" d="M63.73034,71.56661c0,2.16.97198,3.02301,2.24197,3.02301,1.26202,0,2.30502-.879,2.30502-3.02301,0-2.12497-.97301-3.02795-2.243-3.02795-1.23799,0-2.304.90298-2.304,3.02795h0ZM67.26934,71.56661c0,1.52301-.46901,2.16-1.26201,2.16-.789,0-1.269-.63699-1.269-2.16,0-1.52795.46799-2.19998,1.257-2.19998.79298,0,1.274.67203,1.274,2.19998h0ZM71.85534,69.47664l.11699-.793h-1.293v-1.03201c0-.75299.25-1.00699.707-1.00699.25,0,.43001.09698.52701.15601l.203-.80502c-.09302-.05798-.40601-.215-.81601-.215-.85201,0-1.59401.504-1.59401,1.76202v1.15198l-.69899.133v.64902h.69899v4.96799h.97301v-4.96799h1.17601ZM78.70632,68.53865c0,1.08197-.601,1.70697-1.85899,1.70697h-.457v-3.254h.50401c1.23399,0,1.81198.504,1.81198,1.54703h0ZM76.39033,71.07366h.457c.19101,0,.38301-.01102.56201-.02304l1.715,3.39401h1.22701l-1.94501-3.64798c.94901-.40604,1.414-1.23401,1.414-2.31601,0-1.52399-.93401-2.31702-2.92599-2.31702h-1.54701v8.28101h1.043v-3.37097ZM83.08534,69.33162c.61301,0,.93799.46902.93799,1.26202,0,.17999-.01599.33597-.02798.41797h-2.086c.047-1.07797.493-1.67999,1.17599-1.67999h0ZM85.03033,73.90563l-.36299-.68301c-.129.129-.52699.504-1.211.504-.972,0-1.5-.63699-1.558-1.98099h2.937c.039-.27701.07401-.625.07401-1.117,0-1.379-.67101-2.08997-1.76501-2.08997-1.19899,0-2.196.91397-2.196,2.95297,0,2.172.91499,3.09799,2.36401,3.09799,1.09399,0,1.562-.51596,1.71799-.68399h0ZM89.10932,69.15163c-.19199-.19098-.57498-.61298-1.46498-.61298-.93401,0-1.668.63696-1.668,1.48798,0,.793.433,1.26199,1.15199,1.71899l.36.22699c.554.34702.83899.539.83899,1.09399,0,.37103-.30798.66-.88599.66-.625,0-.985-.375-1.164-.56699l-.46901.76999c.23001.23801.69501.66,1.621.66,1.17599,0,1.836-.707,1.836-1.621,0-.85196-.48099-1.31998-1.26199-1.78897l-.35899-.21503c-.51601-.31299-.75401-.55096-.75401-.98398,0-.336.27301-.61401.793-.61401.539,0,.87502.336,1.00801.48099l.41798-.69598ZM92.27734,69.33162c.61299,0,.93701.46902.93701,1.26202,0,.17999-.01202.33597-.02301.41797h-2.09c.04698-1.07797.49199-1.67999,1.17599-1.67999h0ZM94.22233,73.90563l-.35899-.68301c-.133.129-.53201.504-1.21501.504-.97299,0-1.5-.63699-1.55899-1.98099h2.94099c.036-.27701.07101-.625.07101-1.117,0-1.379-.67201-2.08997-1.76602-2.08997-1.19899,0-2.19498.91397-2.19498,2.95297,0,2.172.914,3.09799,2.36299,3.09799,1.09401,0,1.56299-.51596,1.71899-.68399h0ZM97.76133,71.20262h-.30099c-1.30801,0-2.39801.44601-2.39801,1.77802,0,.93701.66,1.60898,1.53502,1.60898.72998,0,1.07799-.49197,1.21098-.78101h.02299c.01201.28903.02802.46802.03902.63602h.92198c-.02298-.15601-.06999-.707-.06999-1.19901v-2.62897c0-1.45303-.62498-2.078-1.80099-2.078-.92599,0-1.476.44498-1.726.69897l.40601.64899c.215-.19501.60098-.51999,1.17599-.51999.625,0,.98399.31302.98399,1.285v.55099ZM97.76133,71.92562v1.26901c-.12099.17999-.395.56702-.96098.56702-.48001,0-.76601-.30099-.76601-.89102,0-.633.49298-.89801,1.41399-.93298l.313-.01202ZM102.83532,68.67162c-.09398-.03497-.24998-.09399-.52699-.09399-.73099,0-1.043.42999-1.21098.88699h-.024v-.78098h-.886v5.76099h.96901v-4.22202c.144-.38699.46799-.78098,1.08199-.78098.261,0,.429.06998.48.09299l.11699-.86301ZM107.14434,69.11666c-.18001-.203-.586-.578-1.46501-.578-1.13699,0-2.40999.80499-2.40999,3.01599,0,2.25397,1.01898,3.03497,2.304,3.03497.89899,0,1.34399-.422,1.5-.60199l-.39801-.67099c-.11699.13199-.41798.40997-1.008.40997-.82799,0-1.39-.55499-1.39-2.24597,0-1.52399.64799-2.11401,1.47601-2.11401.57399,0,.87498.32498.98499.43402l.40601-.68399ZM110.31234,69.36663c.672,0,.99599.39899.99599,1.371v3.707h.97202v-3.78101c0-1.52298-.636-2.12497-1.64401-2.12497-.92198,0-1.35599.55499-1.47699.73499h-.02301v-3.42203l-.97299.10904v8.48398h.97299v-4.44101c.19101-.23801.59-.63699,1.17601-.63699h0ZM113.60134,76.12462c.63699-.22598,1.38998-.742,1.38998-1.836,0-.793-.32399-1.17596-.78899-1.17596-.33601,0-.625.21497-.625.64899,0,.44098.28899.68298.661.68298h.035c0,.69601-.371,1.008-.875,1.258l.203.422ZM123.15234,66.16362h-5.532v.828h2.207v7.453h1.047v-7.453h2.207l.071-.828ZM124.97633,69.33162c.61301,0,.93701.46902.93701,1.26202,0,.17999-.011.33597-.02299.41797h-2.09c.04698-1.07797.49199-1.67999,1.17598-1.67999h0ZM126.92134,73.90563l-.35899-.68301c-.133.129-.52802.504-1.21501.504-.96899,0-1.5-.63699-1.55901-1.98099h2.94202c.03499-.27701.07001-.625.07001-1.117,0-1.379-.672-2.08997-1.76201-2.08997-1.203,0-2.19899.91397-2.19899,2.95297,0,2.172.91399,3.09799,2.36697,3.09799,1.09001,0,1.55901-.51596,1.71501-.68399h0ZM131.71034,69.11666c-.17999-.203-.59001-.578-1.465-.578-1.14001,0-2.41402.80499-2.41402,3.01599,0,2.25397,1.02,3.03497,2.30501,3.03497.90201,0,1.34399-.422,1.5-.60199l-.395-.67099c-.121.13199-.42099.40997-1.00697.40997-.828,0-1.39502-.55499-1.39502-2.24597,0-1.52399.64902-2.11401,1.47702-2.11401.57797,0,.87898.32498.98399.43402l.40999-.68399ZM134.87834,69.36663c.672,0,.99602.39899.99602,1.371v3.707h.96899v-3.78101c0-1.52298-.63301-2.12497-1.64101-2.12497-.925,0-1.35899.55499-1.47601.73499h-.02399v-3.42203l-.97202.10904v8.48398h.97202v-4.44101c.19199-.23801.586-.63699,1.17599-.63699h0ZM140.44535,69.36663c.67097,0,.99599.39899.99599,1.371v3.707h.972v-3.78101c0-1.55798-.64801-2.12497-1.67899-2.12497-.90302,0-1.418.58997-1.52402.79297h-.02701v-.64798h-.88699v5.76099h.97299v-4.44101c.19101-.23801.59001-.63699,1.17603-.63699h0ZM143.60133,71.56661c0,2.16.97202,3.02301,2.24202,3.02301,1.26199,0,2.30498-.879,2.30498-3.02301,0-2.12497-.97299-3.02795-2.24197-3.02795-1.23901,0-2.30502.90298-2.30502,3.02795h0ZM147.14033,71.56661c0,1.52301-.46898,2.16-1.258,2.16-.79298,0-1.27299-.63699-1.27299-2.16,0-1.52795.46799-2.19998,1.26099-2.19998.789,0,1.27.67203,1.27,2.19998h0ZM150.33134,65.85161l-.96799.10904v7.22299c0,1.01898.44098,1.371,1.08897,1.371.43401,0,.68401-.11002.78203-.15601l-.08603-.72302c-.05898.02304-.17999.07401-.35999.07401-.33601,0-.457-.168-.457-.64798v-7.25003ZM151.84335,71.56661c0,2.16.97301,3.02301,2.246,3.02301,1.25798,0,2.30498-.879,2.30498-3.02301,0-2.12497-.97299-3.02795-2.246-3.02795-1.23499,0-2.30498.90298-2.30498,3.02795h0ZM155.38633,71.56661c0,1.52301-.46898,2.16-1.26199,2.16s-1.27301-.63699-1.27301-2.16c0-1.52795.46901-2.19998,1.26201-2.19998s1.27299.67203,1.27299,2.19998h0ZM160.35133,70.47261c0,.82803-.453,1.15201-1.00798,1.15201-.52699,0-.99602-.32397-.99602-1.15201,0-.82797.46902-1.15298,1.02299-1.15298.528,0,.981.32501.981,1.15298h0ZM161.76933,74.89061c0-1.09396-.817-1.52798-1.90598-1.52798h-.735c-.41801,0-.58601-.168-.58601-.40598,0-.30103.27402-.457.465-.539.09801.01196.19501.01196.30099.01196,1.129,0,1.992-.73499,1.992-1.957,0-.383-.09399-.742-.27299-1.03098h.718l.133-.758h-1.754c-.23801-.09402-.492-.14499-.765-.14499-1.082,0-1.957.63696-1.957,1.93396,0,.914.394,1.48804.98399,1.76501v.02402c-.145.06998-.69899.31201-.69899.93298,0,.36401.133.625.375.80502v.02399c-.26601.14398-.96101.55399-.96101,1.40598,0,.996.66002,1.55801,1.88301,1.55801,1.703,0,2.78499-.86301,2.78499-2.09702h0ZM159.05833,76.15962c-.68398,0-1.01999-.31201-1.01999-.922,0-.578.30899-.85101.586-1.00702.133.02304.289.035.446.035h.73001c.59,0,.97298.21503.97298.76501,0,.59-.53897,1.129-1.715,1.129h0ZM165.73033,68.68364l-.81699,3.20697c-.168.64401-.31201,1.22205-.33601,1.66803h-.02299c-.02399-.44598-.19098-1.035-.375-1.68402l-.899-3.19098h-1.04199l1.85899,5.75-.086.29999c-.24998.88699-.563,1.32101-1.246,1.32101-.20299,0-.336-.05103-.40599-.08603v.84c.05801.03503.226.10904.46399.10904,1.14101,0,1.645-.73401,2.06702-2.13702l1.797-6.09698h-.95702ZM165.73033,68.68364"/>
        <path class="cls-3" d="M66.35934,83.20262h-.30099c-1.30902,0-2.40199.44601-2.40199,1.77802,0,.93701.65999,1.60898,1.53899,1.60898.73,0,1.078-.49197,1.211-.78101h.02299c.01201.28903.02301.46802.035.63602h.92599c-.02399-.15601-.07399-.707-.07399-1.19901v-2.62897c0-1.45303-.621-2.078-1.79701-2.078-.92599,0-1.47699.44498-1.731.69897l.41002.64899c.215-.19501.59801-.51999,1.17599-.51999.621,0,.985.31302.985,1.285v.55099ZM66.35934,83.92562v1.26901c-.121.17999-.399.56702-.961.56702-.481,0-.77002-.30099-.77002-.89102,0-.633.49202-.89801,1.41801-.93298l.313-.01202ZM70.92933,81.36663c.67201,0,.996.39899.996,1.371v3.707h.97301v-3.78101c0-1.55798-.64902-2.12497-1.68001-2.12497-.90199,0-1.418.58997-1.52299.79297h-.028v-.64798h-.88699v5.76099h.97301v-4.44101c.19199-.23801.586-.63699,1.17598-.63699h0ZM76.36634,85.72661c-.67101,0-1.27301-.53198-1.27301-2.11395,0-1.63202.707-2.20703,1.60899-2.20703.34801,0,.57501.09402.74301.20398v3.55002c-.133.19199-.46899.56699-1.07899.56699h0ZM77.50334,85.83162h.02699v.61301h.88701v-8.59302l-.972.10904v2.76196c-.18001-.07397-.446-.14499-.817-.14499-1.222,0-2.543.742-2.543,3.07101,0,2.10098.922,2.94098,2.01601,2.94098.914,0,1.297-.578,1.40199-.758h0ZM86.21833,78.64464c-.17999-.14499-.711-.625-1.812-.625-1.29701,0-2.12599.81598-2.12599,1.88599,0,1.13702.52798,1.69202,1.44199,2.457l.67201.56699c.69499.586,1.03099.97202,1.03099,1.69101,0,.56302-.457,1.03101-1.27301,1.03101-.85197,0-1.403-.52701-1.60599-.71799l-.422.91c.242.21899.86398.74597,2.05099.74597,1.48801,0,2.30501-.85199,2.30501-2.11298,0-1.078-.61-1.72702-1.39101-2.375l-.672-.55103c-.758-.61298-1.105-1.02399-1.105-1.668,0-.51999.375-.961,1.09399-.961.765,0,1.24599.38303,1.37801.51602l.43399-.793ZM89.48034,85.68764c-.395,0-.68399-.11801-.864-.25v-3.539c.18001-.20703.528-.53201,1.12898-.53201.70702,0,1.22301.56702,1.22301,2.11401,0,1.668-.59799,2.207-1.48799,2.207h0ZM89.48034,86.55464c1.30798,0,2.496-.81702,2.496-3.14502,0-2.02701-.778-2.87097-1.96901-2.87097-.88699,0-1.30501.504-1.44899.758h-.024v-.61301h-.89v8.16h.972v-2.43402c.18001.07101.46899.14502.864.14502h0ZM95.56632,83.20262h-.30099c-1.30899,0-2.399.44601-2.399,1.77802,0,.93701.661,1.60898,1.53601,1.60898.73,0,1.078-.49197,1.211-.78101h.02299c.01199.28903.02301.46802.035.63602h.92601c-.024-.15601-.07002-.707-.07002-1.19901v-2.62897c0-1.45303-.62498-2.078-1.80098-2.078-.92599,0-1.47702.44498-1.731.69897l.411.64899c.214-.19501.597-.51999,1.175-.51999.62498,0,.98499.31302.98499,1.285v.55099ZM95.56632,83.92562v1.26901c-.12099.17999-.39899.56702-.961.56702-.48099,0-.77-.30099-.77-.89102,0-.633.492-.89801,1.41803-.93298l.31297-.01202ZM101.60134,81.11666c-.18001-.203-.59001-.578-1.46501-.578-1.14099,0-2.40999.80499-2.40999,3.01599,0,2.25397,1.01898,3.03497,2.30399,3.03497.899,0,1.34401-.422,1.5-.60199l-.39799-.67099c-.121.13199-.41798.40997-1.008.40997-.82799,0-1.39-.55499-1.39-2.24597,0-1.52399.64799-2.11401,1.47598-2.11401.57402,0,.87502.32498.98502.43402l.40601-.68399ZM104.39834,81.33162c.60899,0,.93298.46902.93298,1.26202,0,.17999-.01099.33597-.02299.41797h-2.086c.04701-1.07797.49202-1.67999,1.17601-1.67999h0ZM106.33935,85.90563l-.35901-.68301c-.129.129-.528.504-1.211.504-.97299,0-1.5-.63699-1.55902-1.98099h2.938c.03902-.27701.07401-.625.07401-1.117,0-1.379-.672-2.08997-1.76599-2.08997-1.19899,0-2.19501.91397-2.19501,2.95297,0,2.172.91,3.09799,2.36301,3.09799,1.09399,0,1.563-.51596,1.71501-.68399h0ZM106.33935,85.90563"/>
      </g>
    </g>
  </g>
  <g id="Ebene_3" data-name="Ebene 3">
    <g>
      <path class="cls-3" d="M32.14917,24.73328l-2.28809,6.6875h-.96582l-1.19727-3.83203h-.02051l-1.34375,3.83203h-.95557l-2.33057-6.6875-.45117-.10449c-.10547-.03174-.14746-.07373-.14746-.13672,0-.09473.07373-.2207.11572-.31494h2.56152s.01025.06299.01025.11572c0,.16797-.08398.3042-.35645.36719l-.43066.09473,1.69043,5.41699h.03125l1.27051-3.62207-.55664-1.81641-.44092-.10449c-.10498-.03174-.14697-.07373-.14697-.13672,0-.09473.07324-.2207.11523-.31494h2.55127s.01025.06299.01025.11572c0,.16797-.08398.3042-.35645.36719l-.47266.09473,1.51172,5.42725h.03125l1.78516-5.43799-.73535-.13672c-.10449-.02051-.14648-.05225-.14648-.11523,0-.09473.09424-.27295.11523-.31494h2.15234s.01025.06299.01025.11572c0,.18848-.08398.3042-.35693.37793l-.2627.0625Z"/>
      <path class="cls-3" d="M34.90308,30.85388l.61914.13623c.10547.02148.14746.05273.14746.13672,0,.10498-.08398.2627-.10547.29395h-2.40381s-.01025-.06299-.01025-.09473c0-.18848.12598-.27246.3252-.34619l.36719-.12598v-3.88428l-.74512-.11523s-.01074-.06348-.01074-.10547c0-.17822.13672-.3042.38867-.3252l1.42773-.13672v4.56689ZM34.36792,25.24793c-.38867,0-.68262-.2627-.68262-.67188,0-.39893.29395-.67188.68262-.67188.37793,0,.69238.27295.69238.67188,0,.40918-.31445.67188-.69238.67188Z"/>
      <path class="cls-3" d="M39.21802,26.92761h-1.43799v3.06543c0,.47266.14648.86084.67188.86084.40918,0,.74512-.17822.8291-.25195.05273.08398.09473.2417.09473.34619,0,.10547-.36768.59863-1.32324.59863-.95508,0-1.33301-.55664-1.33301-1.36475v-3.25439h-.78711s-.01074-.06299-.01074-.09473c0-.19922.12598-.31445.3252-.35645l.51465-.12598.24121-1.41748h.77734v1.41748h1.55371l-.11572.57715Z"/>
      <path class="cls-3" d="M41.74976,26.98035h.02051c.20996-.25195.71387-.75586,1.61719-.75586,1.0498,0,1.64795.61914,1.64795,1.84766v2.78174l.60889.13623c.10498.02148.14697.05273.14697.13672,0,.10498-.08398.2627-.10498.29395h-2.38281s-.01074-.06299-.01074-.09473c0-.18848.12598-.2832.3252-.34619l.34668-.12598v-2.65576c0-.89258-.48291-1.16553-1.01855-1.16553-.65039,0-.99707.28369-1.19629.48291v3.33838l.58789.13623c.10449.02148.14648.05273.14648.13672,0,.10498-.07324.2627-.10449.29395h-2.3833s-.01025-.06299-.01025-.09473c0-.18848.12598-.2832.3252-.34619l.36719-.12598v-6.37256l-.74512-.10449s-.01074-.07373-.01074-.11572c0-.17822.13672-.3042.38867-.32568l1.43848-.13623v3.18115Z"/>
      <path class="cls-3" d="M51.47242,26.92761h-1.28076v3.92627l.71387.13623c.10498.02148.14697.05273.14697.13672,0,.10498-.07324.2627-.10498.29395h-2.49854s-.01074-.06299-.01074-.09473c0-.18848.12598-.27246.32568-.34619l.35693-.12598v-3.92627h-.77686s-.01025-.06299-.01025-.09473c0-.19922.12598-.3042.3252-.35645l.46191-.12598v-.10547c0-1.68994,1.02881-2.50879,1.93164-2.50879.5249,0,.73486.23096.73486.55664,0,.26221-.15771.40918-.31494.49316-.09473-.10498-.36719-.30469-.69287-.30469-.45166,0-.60889.25195-.60889.87158,0,.32568.021.99756.021.99756h1.396l-.11523.57715Z"/>
      <path class="cls-3" d="M57.12622,30.83289l.76611.10498s.01074.04199.01074.08398c0,.18896-.13672.31494-.38867.33594l-1.38574.12598v-.69287h-.02051c-.16797.2207-.62988.75586-1.55371.75586-1.12354,0-1.64844-.66113-1.64844-1.90039v-2.67676l-.74512-.11523s-.01074-.06348-.01074-.10547c0-.17822.13672-.3042.38867-.3252l1.42773-.13672v3.30713c0,.95557.50391,1.17578.96582,1.17578.53516,0,.89209-.23096,1.13379-.50391v-3.29639l-.74561-.11523s-.01025-.06348-.01025-.10547c0-.17822.13623-.3042.38818-.3252l1.42773-.13672v4.5459Z"/>
      <path class="cls-3" d="M63.66578,30.85388l.61963.13623c.10498.02148.14697.05273.14697.13672,0,.10498-.08398.2627-.10498.29395h-2.3833s-.01025-.06299-.01025-.09473c0-.18848.12598-.2832.32568-.34619l.34619-.12598v-2.65576c0-.89258-.50391-1.16553-1.01807-1.16553-.59863,0-.9873.28369-1.20752.46191v3.35938l.59814.13623c.10547.02148.14746.05273.14746.13672,0,.10498-.08398.2627-.10547.29395h-2.38281s-.01074-.06299-.01074-.09473c0-.18848.12598-.27246.32568-.34619l.36768-.12598v-3.88428l-.74561-.11523s-.01025-.06348-.01025-.10547c0-.17822.13623-.3042.38818-.3252l1.42773-.13672-.06299.73535h.03125c.28369-.30469.75586-.79785,1.72168-.79785,1.0293,0,1.5957.66113,1.5957,1.84766v2.78174Z"/>
      <path class="cls-3" d="M69.43482,30.83289l.76611.10498s.01074.04199.01074.08398c0,.18896-.13672.31494-.38867.33594l-1.38574.12598v-.68213h-.03125c-.23096.3252-.67188.74512-1.49072.74512-1.02881,0-1.99463-.66113-1.99463-2.48828,0-1.95215,1.36475-2.83398,2.7085-2.83398.3042,0,.56689.05225.74561.09424v-1.8374l-.74561-.10449s-.01025-.07373-.01025-.11572c0-.17822.13623-.3042.38818-.32568l1.42773-.13623v7.03369ZM68.37476,27.16882c-.15771-.14648-.44141-.31445-.88184-.31445-.85059,0-1.48047.6084-1.48047,1.99414,0,1.35449.58789,1.90039,1.29102,1.90039.60938,0,.93457-.2832,1.07129-.44092v-3.13916Z"/>
      <path class="cls-3" d="M72.68824,30.85388l.61914.13623c.10547.02148.14746.05273.14746.13672,0,.10498-.08398.2627-.10547.29395h-2.40381s-.01025-.06299-.01025-.09473c0-.18848.12598-.27246.3252-.34619l.36719-.12598v-3.88428l-.74512-.11523s-.01074-.06348-.01074-.10547c0-.17822.13672-.3042.38867-.3252l1.42773-.13672v4.56689ZM72.15308,25.24793c-.38867,0-.68262-.2627-.68262-.67188,0-.39893.29395-.67188.68262-.67188.37793,0,.69238.27295.69238.67188,0,.40918-.31445.67188-.69238.67188Z"/>
      <path class="cls-3" d="M79.22242,30.85388l.61963.13623c.10498.02148.14697.05273.14697.13672,0,.10498-.08398.2627-.10498.29395h-2.3833s-.01025-.06299-.01025-.09473c0-.18848.12598-.2832.32568-.34619l.34619-.12598v-2.65576c0-.89258-.50391-1.16553-1.01807-1.16553-.59863,0-.9873.28369-1.20752.46191v3.35938l.59814.13623c.10547.02148.14746.05273.14746.13672,0,.10498-.08398.2627-.10547.29395h-2.38281s-.01074-.06299-.01074-.09473c0-.18848.12598-.27246.32568-.34619l.36768-.12598v-3.88428l-.74561-.11523s-.01025-.06348-.01025-.10547c0-.17822.13623-.3042.38818-.3252l1.42773-.13672-.06299.73535h.03125c.28369-.30469.75586-.79785,1.72168-.79785,1.0293,0,1.5957.66113,1.5957,1.84766v2.78174Z"/>
      <path class="cls-3" d="M85.26148,26.94861h-.85059c.19922.26221.3252.57764.3252.95557,0,1.1123-.92383,1.74219-2.06787,1.74219-.17822,0-.33594-.02051-.49365-.05225-.14648.08398-.29395.23096-.29395.47217,0,.25195.16797.36768.52539.36768h1.21777c.96582,0,1.51172.44092,1.51172,1.19678,0,1.0498-1.0293,2.01562-2.80322,2.01562-1.2915,0-1.92139-.45117-1.92139-1.21777,0-.73486.57764-1.08105.95557-1.19678v-.021c-.27295-.14697-.43018-.39893-.43018-.73486,0-.60889.55615-.89209.75586-.99756v-.02051c-.58789-.2627-.96582-.79785-.96582-1.55371,0-1.10254.92383-1.67969,1.99414-1.67969.28369,0,.55664.04199.81934.12598h1.83691l-.11523.59814ZM82.23804,31.37878c-.14746,0-.27344-.01074-.38867-.021-.27295.15771-.45117.41992-.45117.77686,0,.5459.33594.89258,1.10205.89258,1.01807,0,1.64795-.47266,1.64795-1.0293,0-.43018-.24121-.61914-.77637-.61914h-1.13379ZM81.77613,27.91443c0,.82959.41992,1.15479.94434,1.15479.56738,0,.97656-.3252.97656-1.15479,0-.74561-.40918-1.12354-.95508-1.12354s-.96582.31543-.96582,1.12354Z"/>
      <path class="cls-3" d="M91.03638,26.92761h-1.28076v3.92627l.71387.13623c.10498.02148.14697.05273.14697.13672,0,.10498-.07373.2627-.10498.29395h-2.49854s-.01025-.06299-.01025-.09473c0-.18848.12598-.27246.3252-.34619l.35693-.12598v-3.92627h-.77686s-.01074-.06299-.01074-.09473c0-.19922.12598-.3042.32568-.35645l.46191-.12598v-.10547c0-1.68994,1.02881-2.50879,1.93164-2.50879.5249,0,.73486.23096.73486.55664,0,.26221-.15723.40918-.31494.49316-.09424-.10498-.36768-.30469-.69287-.30469-.45117,0-.60889.25195-.60889.87158,0,.32568.021.99756.021.99756h1.39648l-.11572.57715Z"/>
      <path class="cls-3" d="M93.53785,27.19031h.03125c.2207-.35742.60938-.96582,1.2915-.96582.49365,0,.72412.23047.72412.55615,0,.23096-.10449.43018-.18848.53564-.08398-.04199-.34668-.15771-.70361-.15771-.57764,0-.87158.23096-1.0918.53564v3.15967l.75586.13623c.10498.02148.14697.05273.14697.13672,0,.10498-.08398.2627-.10498.29395h-2.54053s-.01074-.06299-.01074-.09473c0-.18848.12598-.27246.32568-.34619l.36768-.12598v-3.88428l-.74561-.11523s-.01025-.06348-.01025-.10547c0-.17822.13623-.3042.38818-.3252l1.42773-.13672-.06299.90332Z"/>
      <path class="cls-3" d="M101.01197,28.83826c0,1.81592-1.27002,2.7085-2.55127,2.7085-1.31201,0-2.39355-.83984-2.39355-2.60352,0-1.77441,1.25977-2.71875,2.59326-2.71875,1.31201,0,2.35156.78711,2.35156,2.61377ZM97.19068,28.88025c0,1.40674.56689,2.03662,1.34375,2.03662s1.354-.60889,1.354-2.01562-.57715-2.05762-1.354-2.05762-1.34375.61914-1.34375,2.03662Z"/>
      <path class="cls-3" d="M109.82642,30.85388l.59863.13623c.10449.02148.14648.05273.14648.13672,0,.10498-.07324.2627-.10449.29395h-2.37305s-.01074-.06299-.01074-.09473c0-.18848.12598-.2832.32617-.34619l.3457-.12598v-2.65576c0-.91357-.45117-1.16553-.94434-1.16553-.64062,0-.99707.27295-1.23926.49365.03223.16797.05273.34619.05273.5459v2.78174l.60938.13623c.10449.02148.14648.05273.14648.13672,0,.10498-.07324.2627-.10449.29395h-2.38379s-.00977-.06299-.00977-.09473c0-.18848.12598-.2832.3252-.34619l.34668-.12598v-2.65576c0-.91357-.44141-1.16553-.93457-1.16553-.5879,0-.93457.2417-1.17578.44092v3.38037l.59863.13623c.10449.02148.14648.05273.14648.13672,0,.10498-.08398.2627-.10449.29395h-2.38379s-.01025-.06299-.01025-.09473c0-.18848.12598-.27246.32568-.34619l.36719-.12598v-3.88428l-.74561-.11523s-.01074-.06348-.01074-.10547c0-.17822.13672-.3042.38916-.3252l1.42773-.13672-.06348.68262h.03223c.21973-.24121.73438-.74512,1.6582-.74512.64062,0,1.11328.29395,1.35449.8501.2832-.31494.83984-.8501,1.78418-.8501,1.00781,0,1.61719.64014,1.61719,1.84766v2.78174Z"/>
      <path class="cls-3" d="M116.30591,26.92761h-1.43848v3.06543c0,.47266.14746.86084.67188.86084.41016,0,.74609-.17822.83008-.25195.05176.08398.09375.2417.09375.34619,0,.10547-.36719.59863-1.32227.59863-.95605,0-1.33398-.55664-1.33398-1.36475v-3.25439h-.78711s-.01074-.06299-.01074-.09473c0-.19922.12598-.31445.32617-.35645l.51367-.12598.24219-1.41748h.77637v1.41748h1.55371l-.11523.57715Z"/>
      <path class="cls-3" d="M118.83814,26.98035h.02051c.20996-.25195.71387-.75586,1.61719-.75586,1.0498,0,1.64746.61914,1.64746,1.84766v2.78174l.60938.13623c.10547.02148.14648.05273.14648.13672,0,.10498-.08398.2627-.10449.29395h-2.38281s-.01074-.06299-.01074-.09473c0-.18848.12598-.2832.3252-.34619l.34668-.12598v-2.65576c0-.89258-.48242-1.16553-1.01855-1.16553-.65039,0-.99707.28369-1.19629.48291v3.33838l.58789.13623c.10449.02148.14648.05273.14648.13672,0,.10498-.07324.2627-.10449.29395h-2.38379s-.00977-.06299-.00977-.09473c0-.18848.12598-.2832.3252-.34619l.36719-.12598v-6.37256l-.74512-.10449s-.01074-.07373-.01074-.11572c0-.17822.13672-.3042.38867-.32568l1.43848-.13623v3.18115Z"/>
      <path class="cls-3" d="M124.47486,28.90125c.01074,1.30176.63086,1.91064,1.5332,1.91064.67188,0,1.0498-.26221,1.3125-.48291.10449.08398.15723.2627.15723.35693,0,.26221-.69238.86084-1.8584.86084-1.29102,0-2.25684-.73486-2.25684-2.56152s1.10254-2.76074,2.29883-2.76074c1.18652,0,1.78516.72412,1.78516,1.77393,0,.27295-.05273.64014-.12598.90283h-2.8457ZM126.31275,28.34461c.02051-.09424.05273-.27246.05273-.45117,0-.57715-.21094-1.0708-.81934-1.0708-.61914,0-.9873.49365-1.06055,1.52197h1.82715Z"/>
      <path class="cls-3" d="M129.16431,27.5155c-.36816,0-.65137-.25195-.65137-.64062,0-.39844.2832-.65039.65137-.65039.36718,0,.66113.25195.66113.65039,0,.38867-.29396.64062-.66113.64062ZM129.16431,31.5575c-.36816,0-.65137-.25195-.65137-.64062,0-.39893.2832-.65088.65137-.65088.36718,0,.66113.25195.66113.65088,0,.38867-.29396.64062-.66113.64062Z"/>
    </g>
  </g>
</svg>